<svg xmlns="http://www.w3.org/2000/svg" xmlns:xlink="http://www.w3.org/1999/xlink" width="296" height="265" viewBox="0 0 296 265">
    <defs>
        <rect id="a" width="134.746" height="94.912" rx="10.221"/>
        <path id="c" d="M139.825 0L76.303 54.366a15.332 15.332 0 0 1-20.179-.21L-4.546 0h144.371z"/>
    </defs>
    <g fill="none" fill-rule="evenodd">
        <g stroke="#414042" stroke-width="5.111">
            <path fill="#6FAC2F" d="M105.121 249.425c-11.136 0-47.086-18.368-85.622-59.23-10.647-11.29-16.585-26.282-16.585-41.872V48.412a5.11 5.11 0 0 1 3.128-4.71l96.105-40.45c1.902-.8 4.046-.8 5.948 0l96.105 40.45a5.11 5.11 0 0 1 3.128 4.71v99.91c0 15.59-5.938 30.584-16.585 41.873-38.536 40.862-74.485 59.23-85.622 59.23z"/>
            <path fill="#F7F9FA" d="M105.121 230.752c-10.071 0-37.908-16.008-68.593-48.025-11.13-11.612-17.354-27.149-17.354-43.32v-82.51l85.947-36.223 85.947 36.222v82.511c0 16.171-6.223 31.708-17.353 43.32-30.686 32.017-58.522 48.025-68.594 48.025z"/>
        </g>
        <path stroke="#696869" stroke-linecap="round" stroke-linejoin="round" stroke-width="15.332" d="M67.242 121.138l33.8 27.448 52.564-54.895"/>
        <g transform="translate(135.424 169.934)">
            <mask id="b" fill="#fff">
                <use xlink:href="#a"/>
            </mask>
            <use fill="#E5BD3E" xlink:href="#a"/>
            <rect width="129.635" height="89.801" x="2.555" y="2.555" stroke="#414042" stroke-width="5.111" rx="10.221"/>
            <g mask="url(#b)">
                <use fill="#FFD446" xlink:href="#c"/>
                <path stroke="#414042" stroke-width="5.111" d="M132.91 2.555H2.154L57.826 52.25a12.776 12.776 0 0 0 16.816.175L132.91 2.555z"/>
            </g>
        </g>
        <ellipse cx="21.97" cy="22.11" fill="#6FAC2F" stroke="#414042" stroke-width="5.111" rx="21.97" ry="22.11" transform="translate(249.06 162.31)"/>
        <path fill="#FFF" d="M258.152 179.548v-2.769c1.295-.057 2.202-.142 2.72-.257.825-.18 1.497-.542 2.015-1.084.356-.371.624-.866.807-1.484.105-.371.158-.647.158-.828h3.412v20.692h-4.204v-14.27h-4.908zm17.066 4.124c0 2.378.197 4.198.59 5.458.394 1.26 1.2 1.89 2.419 1.89s2.017-.63 2.397-1.89c.379-1.26.568-3.08.568-5.458 0-2.493-.19-4.338-.568-5.537-.38-1.199-1.178-1.798-2.397-1.798-1.219 0-2.025.6-2.419 1.798-.393 1.199-.59 3.044-.59 5.537zm3.009-10.689c2.658 0 4.522.928 5.592 2.783 1.07 1.855 1.605 4.49 1.605 7.906 0 3.415-.535 6.045-1.605 7.891-1.07 1.846-2.934 2.768-5.592 2.768-2.659 0-4.523-.922-5.593-2.768-1.07-1.846-1.605-4.476-1.605-7.891 0-3.416.535-6.05 1.605-7.906 1.07-1.855 2.934-2.783 5.593-2.783z"/>
    </g>
</svg>
